<svg width="74" height="45" viewBox="0 0 74 45" fill="none" xmlns="http://www.w3.org/2000/svg">
<path d="M2.56277 1.08286V3.32878H12.4935V1.08286H2.56277ZM27.3464 1.08286L22.2208 6.2164H17.9394V13.5959H22.8538C26.813 7.08301 33.9695 2.72591 42.1255 2.72591C50.2816 2.72591 57.4381 7.08301 61.3973 13.5959H74V6.2164H62.0303L56.9047 1.08286C42.1255 -0.360952 42.1255 -0.360952 27.3464 1.08286ZM42.1255 5.61353C31.2493 5.61353 22.463 14.4135 22.463 25.3068C22.463 36.2 31.2493 45 42.1255 45C53.0018 45 61.7881 36.2 61.7881 25.3068C61.7881 14.4135 53.0018 5.61353 42.1255 5.61353ZM0 6.2164V13.5959H15.0563V6.2164H0ZM42.1255 8.57671C51.3339 8.57671 58.8295 16.0839 58.8295 25.3066C58.8295 34.5293 51.3339 42.0368 42.1255 42.0368C32.9172 42.0368 25.4216 34.5295 25.4216 25.3068C25.4216 16.084 32.9172 8.57671 42.1255 8.57671ZM38.6359 12.1128C36.6861 12.1801 34.5167 13.1597 32.7447 14.7723C29.5372 17.6903 28.5254 21.8073 30.4846 23.9674C32.4439 26.1275 36.6321 25.5129 39.8397 22.5945C43.0469 19.6761 44.0587 15.5591 42.0994 13.399C41.2986 12.5161 40.0782 12.0627 38.6359 12.1128ZM0 16.4835V39.2636H15.0563V16.4835H0ZM17.9394 16.4835V39.2636H24.4123C21.387 35.4198 19.5799 30.5714 19.5799 25.3068C19.5799 22.1774 20.2187 19.1953 21.3719 16.4835H17.9394ZM62.8792 16.4835C64.0324 19.1953 64.6712 22.1774 64.6712 25.3068C64.6712 30.5714 62.8641 35.4198 59.8388 39.2636H74V16.4835H62.8792ZM0 42.1512V44.3971H15.0563V42.1512H0ZM17.9394 42.1512V44.3971H30.0949C29.0455 43.7313 28.0525 42.9801 27.126 42.1512H17.9394ZM57.1251 42.1512C56.1986 42.98 55.2056 43.7312 54.1563 44.3971H74V42.1512H57.1251Z" fill="#CD1C29"/>
</svg>
