<svg width="39" height="39" viewBox="0 0 39 39" fill="none" xmlns="http://www.w3.org/2000/svg">
<path d="M19.5 0C8.73031 0 0 8.73031 0 19.5C0 30.2697 8.73031 39 19.5 39C30.2697 39 39 30.2697 39 19.5C39 8.73031 30.2697 0 19.5 0ZM27.432 15.9738C27.4402 16.1403 27.4422 16.3069 27.4422 16.4694C27.4422 21.5475 23.5808 27.3995 16.5161 27.3995C14.4286 27.403 12.3845 26.8035 10.6295 25.673C10.9281 25.7095 11.2348 25.7238 11.5456 25.7238C13.3453 25.7238 15.0008 25.1123 16.315 24.0805C15.5141 24.0647 14.7381 23.7995 14.0951 23.3218C13.4521 22.8441 12.9741 22.1777 12.7278 21.4155C13.303 21.5248 13.8955 21.5019 14.4605 21.3484C13.5912 21.1727 12.8095 20.7016 12.2478 20.0153C11.6862 19.3289 11.3793 18.4694 11.3791 17.5825V17.5358C11.897 17.8222 12.4902 17.9969 13.1198 18.0172C12.3049 17.4747 11.728 16.6414 11.5071 15.6876C11.2862 14.7339 11.4381 13.7318 11.9316 12.8862C12.8963 14.0725 14.0994 15.0429 15.463 15.7347C16.8266 16.4265 18.3203 16.8242 19.8473 16.902C19.6532 16.078 19.7368 15.2129 20.085 14.4412C20.4333 13.6695 21.0267 13.0345 21.7731 12.6349C22.5195 12.2353 23.377 12.0935 24.2123 12.2315C25.0476 12.3695 25.8139 12.7797 26.392 13.3981C27.2516 13.2281 28.0759 12.9128 28.8295 12.4658C28.543 13.3557 27.9432 14.1115 27.1416 14.5925C27.903 14.5008 28.6465 14.2961 29.3475 13.9852C28.8326 14.7568 28.1839 15.4303 27.432 15.9738Z" fill="white"/>
</svg>

