<svg width="41" height="41" viewBox="0 0 41 41" fill="none" xmlns="http://www.w3.org/2000/svg">
<path d="M20.4989 3.16612e-08C17.8068 0.000149544 15.1411 0.530545 12.6539 1.56091C10.1668 2.59126 7.907 4.10141 6.00351 6.00512C4.10001 7.90882 2.59012 10.1688 1.56003 12.656C0.52995 15.1433 -0.000149521 17.809 3.16352e-08 20.5011C0.000149584 23.1932 0.530546 25.8589 1.56091 28.3461C2.59127 30.8332 4.10141 33.093 6.00512 34.9965C7.90882 36.9 10.1688 38.4099 12.656 39.44C15.1433 40.4701 17.809 41.0001 20.5011 41C25.9381 40.9997 31.1522 38.8396 34.9965 34.9949C38.8408 31.1502 41.0003 25.9358 41 20.4989C40.9997 15.0619 38.8396 9.84779 34.9949 6.00351C31.1502 2.15922 25.9358 -0.000301923 20.4989 3.16612e-08ZM24.0975 7.67568H25.9197V13.7798C25.9197 14.167 26.1019 14.167 26.1702 14.167C26.4435 14.167 26.8535 13.8709 27.0585 13.6659V7.65291H28.8806V15.7158H27.0585V15.0097C26.808 15.2375 26.5574 15.4197 26.3069 15.5564C25.9652 15.7386 25.6464 15.8069 25.3275 15.8069C25.1529 15.8153 24.9786 15.7849 24.8172 15.7179C24.6557 15.651 24.5111 15.5491 24.3936 15.4197C24.1887 15.1692 24.0975 14.782 24.0975 14.3036V7.67568ZM18.2895 9.7939C18.2895 8.54119 19.3145 7.51625 20.5672 7.51625C21.8199 7.51625 22.8448 8.54119 22.8448 9.7939V13.6659C22.8448 14.9186 21.8199 15.9436 20.5672 15.9436C19.3145 15.9436 18.2895 14.9186 18.2895 13.6659V9.7939ZM13.552 4.89695L14.6453 8.90562L15.7613 4.89695H17.834L15.693 11.2288V15.7158H13.6659V11.2288L11.4794 4.89695H13.552ZM31.5455 33.4587C30.3839 34.5975 20.5444 34.6203 20.5444 34.6203C20.5444 34.6203 10.7277 34.5975 9.54336 33.4587C8.38176 32.3199 8.38176 26.6485 8.38176 26.603C8.38176 26.5802 8.38176 20.9088 9.54336 19.7472C10.705 18.6084 20.5444 18.5856 20.5444 18.5856C20.5444 18.5856 30.3611 18.6084 31.5455 19.7472C32.7071 20.8861 32.7298 26.5574 32.7298 26.603C32.7298 26.603 32.7298 32.2971 31.5455 33.4587Z" fill="white"/>
</svg>

